:SAMPLES-PER-SECOND 30
:FULLY-SPECIFIED
:DEGREES
45
root  35.00286012 36.53714638 -14.62461817 10.06176376 0.979914844 2.773195744
lowerback  -8.242600441 0.4501690567 0.964669466
upperback  -3.654289961 0.2212149948 -2.898989916
thorax  0.856810987 -0.06951259822 -3.521929979
lowerneck  -15.09869957 3.430999994 2.701469898
upperneck  12.78439999 3.297250032 3.893049955
head  6.350629807 2.007659912 1.126309991
lclavicle  0 -4.497500157e-015 -2.743230041e-014
lhumerus  -44.71870041 26.73520088 69.76319885
lradius  -0.4750208259 -6.507048965e-006 28.53409767
lwrist  4.824992743e-007 -3.790274832e-007 -29.37529945
lhand  -3.514630307e-031 -36.8628006 -10.70259953
lfingers  90 7.125020027 -90
lthumb  94.80448914 -25.53925514 101.0317841
rclavicle  0 -4.497500157e-015 -2.743230041e-014
rhumerus  -35.12630081 -5.513530254 -78.55120087
rradius  -5.16745672e-007 2.214343908e-008 72.77089691
rwrist  1.129822067e-006 0.001802438172 -168.0200043
rhand  -3.012049973e-031 -1.562540054 -7.768740177
rfingers  -90 -7.125020027 -90
rthumb  -86.41565704 -7.958748817 -65.6576767
rfemur  -12.55530357 14.86735916 13.67583179
rtibia  -0.5839859247 0.8584925532 20.19880867
rfoot  -0.2669679821 -18.78555489 -39.7375145
rtoes  4.072811604 19.60980988 -101.9852982
lfemur  -10.03047466 -17.0332489 -18.42868042
ltibia  2.139453173 1.401221991 15.14623165
lfoot  0.425825417 -28.23550987 33.48236465
ltoes  -8.689767838 -18.08358002 -116.2150116
46
root  35.00272195 36.53754587 -14.61922803 10.06459713 1.001771688 2.753211021
lowerback  -8.239739418 0.4453510642 0.8950827718
upperback  -3.670819998 0.2176990062 -2.888050079
thorax  0.8376129866 -0.07168740034 -3.471369982
lowerneck  -15.00930023 3.447770119 2.693989992
upperneck  12.64009953 3.326580048 3.924760103
head  6.288440228 2.021399975 1.136459947
lclavicle  0 -4.497500157e-015 -2.743230041e-014
lhumerus  -44.82920074 26.86120033 69.64969635
lradius  -0.4757201672 -6.507048965e-006 28.49749947
lwrist  4.824992743e-007 -3.790274832e-007 -29.48189926
lhand  -3.516721181e-031 -36.83380127 -10.68150043
lfingers  90 7.125020027 -90
lthumb  94.78643799 -25.51960564 100.998848
rclavicle  0 -4.497500157e-015 -2.743230041e-014
rhumerus  -34.33729935 -4.827689648 -78.68859863
rradius  -5.16745672e-007 2.214343908e-008 74.00360107
rwrist  1.129822067e-006 0.001802438172 -168.4380035
rhand  -3.004313352e-031 -1.610659957 -7.88409996
rfingers  -90 -7.125020027 -90
rthumb  -86.47255707 -7.850887775 -65.71107483
rfemur  -12.50694847 14.85721302 13.68865681
rtibia  -0.5579962134 0.8406404853 20.11843491
rfoot  -0.2432708591 -18.82058144 -39.75317383
rtoes  4.060096741 19.60910797 -101.9473877
lfemur  -10.01137352 -17.03780174 -18.41238403
ltibia  2.146387339 1.418631077 15.13428402
lfoot  0.4304113984 -28.26347733 33.48162842
ltoes  -8.686120033 -18.08528709 -116.2032623
47
root  35.00201909 36.53785826 -14.61315756 10.06103611 1.018823624 2.755311012
lowerback  -8.292910576 0.4733718932 0.9267308116
upperback  -3.653860092 0.2532820106 -2.924520016
thorax  0.8870850205 -0.05398299918 -3.524359941
lowerneck  -14.90100002 3.458770037 2.811949968
upperneck  12.44190025 3.334450006 3.886539936
head  6.209839821 2.023890018 1.100939989
lclavicle  0 -4.497500157e-015 -2.743230041e-014
lhumerus  -44.84980011 26.89380074 69.57029724
lradius  -0.476388365 -6.507048965e-006 28.4904995
lwrist  4.824992743e-007 -3.790274832e-007 -29.62969971
lhand  -3.513980903e-031 -36.81430054 -10.71730042
lfingers  90 7.125020027 -90
lthumb  94.78479767 -25.55534554 100.9811707
rclavicle  0 -4.497500157e-015 -2.743230041e-014
rhumerus  -33.46490097 -4.228960514 -78.82589722
rradius  -5.16745672e-007 2.214343908e-008 75.1780014
rwrist  1.129822067e-006 0.001802438172 -168.5469971
rhand  -2.999383946e-031 -1.710389972 -7.957330227
rfingers  -90 -7.125020027 -90
rthumb  -86.52121735 -7.77849865 -65.81232452
rfemur  -12.47864532 14.87908363 13.68874168
rtibia  -0.5517522097 0.847180903 20.09229088
rfoot  -0.235012576 -18.80184555 -39.77604675
rtoes  4.05636692 19.60837746 -101.9362717
lfemur  -9.981207848 -17.02788925 -18.43179131
ltibia  2.169232845 1.418115258 15.1065731
lfoot  0.4212793708 -28.25299454 33.43828201
ltoes  -8.667488098 -18.09399223 -116.1432571
48
root  35.00148142 36.53812859 -14.60757218 10.04978275 1.027908087 2.759521484
lowerback  -8.360480309 0.5229310989 0.9629586935
upperback  -3.637959957 0.3177540004 -2.942290068
thorax  0.9454529881 -0.02128979936 -3.557849884
lowerneck  -14.89620018 3.445039988 2.848059893
upperneck  12.3448 3.320179939 3.846400023
head  6.179490089 2.014600039 1.079530001
lclavicle  0 -4.497500157e-015 -2.743230041e-014
lhumerus  -44.83060074 26.90880013 69.59010315
lradius  -0.4770309627 -6.507048965e-006 28.48159981
lwrist  4.824992743e-007 -3.790274832e-007 -29.71680069
lhand  -3.51368687e-031 -36.83649826 -10.7177
lfingers  90 7.125020027 -90
lthumb  94.79534912 -25.55502319 101.0050201
rclavicle  0 -4.497500157e-015 -2.743230041e-014
rhumerus  -32.58480072 -3.469649315 -78.86669922
rradius  -5.16745672e-007 2.214343908e-008 76.45529938
rwrist  1.129822067e-006 0.001802438172 -169.022995
rhand  -2.987116059e-031 -1.673370004 -8.140789986
rfingers  -90 -7.125020027 -90
rthumb  -86.59039307 -7.613277435 -65.78646851
rfemur  -12.42287254 14.83770561 13.6847887
rtibia  -0.5390385985 0.8255323768 20.0331974
rfoot  -0.2127014399 -18.82601547 -39.76027679
rtoes  4.062222958 19.60762024 -101.9554367
lfemur  -9.989983559 -16.99114037 -18.43798447
ltibia  2.161285877 1.406940341 15.13871574
lfoot  0.4086951315 -28.25259399 33.3651886
ltoes  -8.64567852 -18.10415268 -116.0730515
49
root  35.00151446 36.53839892 -14.59738063 10.07318306 0.9263297319 2.766882181
lowerback  -8.309999466 0.5865669847 1.039509773
upperback  -3.638459921 0.3978269994 -2.970000029
thorax  0.9233090281 0.0179785993 -3.622730017
lowerneck  -14.92860031 3.456399918 2.839699984
upperneck  12.30150032 3.329099894 3.897049904
head  6.170100212 2.022089958 1.097839952
lclavicle  0 -4.497500157e-015 -2.743230041e-014
lhumerus  -44.87409973 26.92700005 69.55210114
lradius  -0.4776901901 -6.507048965e-006 28.50769806
lwrist  4.824992743e-007 -3.790274832e-007 -29.74010086
lhand  -3.513178311e-031 -36.8064003 -10.72809982
lfingers  90 7.125020027 -90
lthumb  94.78340149 -25.56628418 100.9737473
rclavicle  0 -4.497500157e-015 -2.743230041e-014
rhumerus  -31.59020042 -2.930540085 -79.05729675
rradius  -5.16745672e-007 2.214343908e-008 77.59989929
rwrist  1.129822067e-006 0.001802438172 -169.2259979
rhand  -2.996094386e-031 -1.425629973 -8.007570267
rfingers  -90 -7.125020027 -90
rthumb  -86.48991394 -7.74900198 -65.53800201
rfemur  -12.37069416 14.78366947 13.65445518
rtibia  -0.5074298978 0.7447955608 19.9106102
rfoot  -0.1485246867 -18.93889999 -39.64076614
rtoes  4.067129135 19.60683441 -101.9683533
lfemur  -9.92609024 -17.03028488 -18.49084663
ltibia  2.225292921 1.372635722 15.05040359
lfoot  0.4165126979 -28.12914658 33.44042206
ltoes  -8.658637047 -18.09811974 -116.1147614
50
root  35.02142598 36.5387053 -14.59536965 10.07878399 0.7339993119 2.796307325
lowerback  -8.326189995 0.6728749275 0.9670929909
upperback  -3.637680054 0.5184080005 -2.950910091
thorax  0.9408079982 0.07936909795 -3.550849915
lowerneck  -14.94699955 3.446480036 2.832920074
upperneck  12.26270008 3.315900326 3.911870003
head  6.160520077 2.016279936 1.102180004
lclavicle  0 -4.497500157e-015 -2.743230041e-014
lhumerus  -44.69860077 26.92880058 69.53820038
lradius  -0.4783601165 -6.507048965e-006 28.30270004
lwrist  4.824992743e-007 -3.790274832e-007 -29.77079964
lhand  -3.515373168e-031 -36.78749847 -10.70429993
lfingers  90 7.125020027 -90
lthumb  94.76952362 -25.54365158 100.951355
rclavicle  0 -4.497500157e-015 -2.743230041e-014
rhumerus  -30.58110046 -2.493719578 -79.10610199
rradius  -5.16745672e-007 2.214343908e-008 78.68450165
rwrist  1.129822067e-006 0.001802438172 -169.7149963
rhand  -3.012607533e-031 -1.566460013 -7.760399818
rfingers  -90 -7.125020027 -90
rthumb  -86.41292572 -7.966087818 -65.66095734
rfemur  -12.3980608 14.8875227 13.56147003
rtibia  -0.5070644021 0.6812962294 19.8952179
rfoot  -0.1339336783 -19.00331116 -39.58636856
rtoes  4.0595994 19.60601997 -101.9459076
lfemur  -9.918218613 -16.90899849 -18.58041191
ltibia  2.22464633 1.337521553 15.05966854
lfoot  0.4304802418 -28.09442329 33.48826981
ltoes  -8.637597084 -18.10790825 -116.0470428
51
root  35.01847635 36.53893658 -14.59125008 10.05073833 0.8048030734 2.795898438
lowerback  -8.411480904 0.6795660257 0.9701934457
upperback  -3.636140108 0.5256590247 -2.964040041
thorax  0.9900509715 0.08253899962 -3.565639973
lowerneck  -14.93789959 3.44472003 2.883189917
upperneck  12.18130016 3.308449745 3.898509979
head  6.13436985 2.012660027 1.087800026
lclavicle  0 -4.497500157e-015 -2.743230041e-014
lhumerus  -44.6086998 26.94989967 69.50119781
lradius  -0.4790348113 -6.507048965e-006 28.26910019
lwrist  4.824992743e-007 -3.790274832e-007 -29.3913002
lhand  -3.518239907e-031 -36.84579849 -10.66149998
lfingers  90 7.125020027 -90
lthumb  94.78783417 -25.49959755 101.0098572
rclavicle  0 -4.497500157e-015 -2.743230041e-014
rhumerus  -29.55439949 -1.855909228 -79.10669708
rradius  -5.16745672e-007 2.214343908e-008 79.91889954
rwrist  1.129822067e-006 0.001802438172 -169.9589996
rhand  -2.988394888e-031 -0.7895280123 -8.124389648
rfingers  -90 -7.125020027 -90
rthumb  -86.42189789 -7.680348396 -64.92584229
rfemur  -12.35687256 14.8471899 13.58656025
rtibia  -0.5053679347 0.7161319256 19.90365982
rfoot  -0.1329797804 -18.95540619 -39.58990097
rtoes  4.08140564 19.60518074 -102.0109177
lfemur  -9.836884499 -16.9573288 -18.59961891
ltibia  2.263167143 1.355061769 14.97969437
lfoot  0.4266316295 -28.09843445 33.49703979
ltoes  -8.633167267 -18.10996437 -116.0327988
